<svg xmlns="http://www.w3.org/2000/svg" viewBox="0 0 100 100" fill="none">
  <!-- Bordure blanche -->
  <circle cx="50" cy="50" r="47" stroke="#FFFFFF" stroke-width="3.5"/>
  <!-- Fond vert CotisApp -->
  <circle cx="50" cy="50" r="42" fill="#064E3B"/>

  <!-- Ombre sous les mains -->
  <path
    fill="#022c22"
    fill-opacity="0.3"
    d="M26 64c8-6 18-8 28-6 10 2 18 8 20 14H26c-2-4 0-6 0-8z"
  />

  <!-- Main gauche (or) � entre par la gauche, doigts en bas -->
  <path
    fill="#FBBF24"
    d="M8 52V38c0-10 10-18 20-16 4 1 7 4 8 6l2 12c1 5-1 9-6 11l-8 3c-5 2-8-1-8-6z"
  />
  <path
    fill="#FBBF24"
    d="M22 28c6-8 18-6 20 4l-1 14c0 6-5 11-11 12-3 0-6-1-8-4l-4-10c-1-4 1-8 4-12z"
  />
  <path
    fill="#E5A800"
    fill-opacity="0.5"
    d="M14 44c2-8 10-12 16-8 2 1 3 4 2 6l-3 12c-2 6-8 8-12 5z"
  />

  <!-- Main droite (blanche) � croise par-dessus -->
  <path
    fill="#FFFFFF"
    d="M92 46V32c0-12-12-20-22-16-5 2-8 6-9 9l-2 14c-1 6 2 11 8 12l9 2c6 1 9-3 8-8z"
  />
  <path
    fill="#FFFFFF"
    d="M78 26c-7-9-20-7-22 5l2 16c1 7 6 12 13 11 4-1 7-3 9-6l5-12c2-5 0-10-4-14z"
  />

  <!-- Doigts blancs visibles en prise (bas) -->
  <ellipse cx="42" cy="66" rx="5" ry="3.5" fill="#FFFFFF"/>
  <ellipse cx="52" cy="68" rx="5" ry="3.5" fill="#FFFFFF"/>
  <ellipse cx="62" cy="66" rx="4.5" ry="3.5" fill="#FFFFFF"/>
  <ellipse cx="71" cy="63" rx="4" ry="3" fill="#FFFFFF"/>
</svg>
